<?xml version="1.0" encoding="UTF-8"?>
<svg width="128" height="128" viewBox="0 0 128 128" xmlns="http://www.w3.org/2000/svg">
    <!-- Background -->
    <rect width="128" height="128" rx="14" fill="#2C3E50"/>
    
    <!-- Code Block (Left) -->
    <rect x="24" y="32" width="32" height="64" rx="4" 
          fill="#3498DB" opacity="0.9"/>
    
    <!-- Code Lines (Left) -->
    <g fill="#FFFFFF" opacity="0.6">
        <rect x="30" y="40" width="20" height="3" rx="1.5"/>
        <rect x="30" y="48" width="16" height="3" rx="1.5"/>
        <rect x="30" y="56" width="20" height="3" rx="1.5"/>
        <rect x="30" y="64" width="12" height="3" rx="1.5"/>
    </g>
    
    <!-- Code Block (Right) -->
    <rect x="72" y="32" width="32" height="64" rx="4" 
          fill="#E74C3C" opacity="0.9"/>
    
    <!-- Code Lines (Right) -->
    <g fill="#FFFFFF" opacity="0.6">
        <rect x="78" y="40" width="20" height="3" rx="1.5"/>
        <rect x="78" y="48" width="16" height="3" rx="1.5"/>
        <rect x="78" y="56" width="20" height="3" rx="1.5"/>
        <rect x="78" y="64" width="12" height="3" rx="1.5"/>
    </g>
    
    <!-- Connecting Arrow -->
    <g>
        <!-- Main Curved Arrow -->
        <path d="M 56,54 
                 C 60,54 60,54 64,54
                 S 68,54 72,54"
              fill="none"
              stroke="#F1C40F" 
              stroke-width="4"
              stroke-linecap="round"/>
        
        <!-- Arrow Head -->
        <path d="M 68,50 L 72,54 L 68,58" 
              fill="none"
              stroke="#F1C40F" 
              stroke-width="4"
              stroke-linecap="round"
              stroke-linejoin="round"/>
    </g>
    
    <!-- Selection Highlight -->
    <rect x="28" y="46" width="24" height="16" rx="2" 
          fill="#FFFFFF" fill-opacity="0.1" 
          stroke="#FFFFFF" stroke-width="1" stroke-opacity="0.3"/>
    
    <!-- Border -->
    <rect width="126" height="126" x="1" y="1" rx="13" 
          stroke="#FFFFFF" stroke-width="2" 
          fill="none" stroke-opacity="0.2"/>
</svg> 